<?xml version="1.0" standalone="no"?>
<!DOCTYPE svg PUBLIC "-//W3C//DTD SVG 20010904//EN"
 "http://www.w3.org/TR/2001/REC-SVG-20010904/DTD/svg10.dtd">
<svg version="1.0" xmlns="http://www.w3.org/2000/svg"
 width="378.000000pt" height="378.000000pt" viewBox="0 0 378.000000 378.000000"
 preserveAspectRatio="xMidYMid meet">
<metadata>
Created by potrace 1.11, written by Peter Selinger 2001-2013
</metadata>
<g transform="translate(0.000000,378.000000) scale(0.100000,-0.100000)"
fill="#000000" stroke="none">
<path d="M1655 3640 c-181 -4 -292 -10 -315 -18 -19 -7 -75 -12 -124 -12 -86
0 -90 -1 -138 -35 -27 -20 -66 -51 -86 -70 -20 -19 -53 -45 -72 -58 -19 -12
-40 -34 -47 -48 -16 -33 -105 -115 -158 -145 -24 -13 -59 -24 -77 -25 -25 0
-41 -10 -66 -40 l-34 -38 19 -28 c43 -64 47 -79 33 -130 -15 -56 -56 -104
-120 -141 -65 -37 -76 -48 -88 -90 -42 -146 -51 -179 -75 -304 -10 -54 -9 -61
16 -110 15 -29 27 -62 27 -72 0 -11 11 -34 26 -53 36 -47 54 -96 54 -145 1
-24 7 -54 15 -68 8 -14 14 -39 15 -55 0 -17 9 -55 20 -85 11 -30 20 -62 20
-71 0 -9 13 -30 29 -45 37 -37 71 -93 71 -119 1 -11 14 -36 30 -55 17 -19 30
-40 30 -47 0 -7 5 -13 10 -13 6 0 10 19 10 43 0 23 6 67 14 97 24 94 27 142
16 240 -6 52 -14 130 -17 172 -5 72 -4 78 20 102 24 24 33 26 107 26 53 0 88
-5 103 -14 80 -53 327 -75 327 -30 0 8 -4 14 -10 14 -5 0 -12 11 -16 25 -4 17
-13 25 -28 25 -13 0 -49 13 -82 29 -87 43 -121 51 -201 50 -47 -1 -88 5 -118
17 -44 16 -48 16 -75 1 -15 -9 -31 -17 -35 -17 -13 0 3 126 20 162 29 59 53
100 83 137 16 20 32 49 36 64 4 17 19 35 37 45 81 45 120 74 129 96 16 42 65
61 150 56 105 -5 177 -4 236 5 61 9 111 -5 144 -40 l23 -25 -36 -15 c-20 -8
-44 -15 -53 -15 -16 0 -16 -2 1 -20 21 -23 75 -42 130 -46 93 -7 126 -16 120
-32 -3 -8 2 -26 11 -39 13 -21 21 -24 51 -18 55 10 103 37 103 57 0 11 -5 15
-15 12 -9 -4 -15 0 -15 8 0 21 27 73 46 89 8 7 24 30 35 51 17 34 34 44 63 39
5 -1 21 10 37 24 30 30 63 27 86 -6 8 -10 20 -15 33 -12 12 3 20 0 20 -6 0 -7
15 -18 32 -26 28 -11 33 -18 33 -48 0 -33 -2 -35 -31 -32 -42 3 -57 14 -51 36
7 25 -17 44 -32 25 -8 -9 -8 -16 -2 -20 11 -7 3 -37 -13 -48 -15 -10 -17 -40
-4 -65 8 -17 8 -26 -2 -38 -11 -14 -10 -19 6 -34 27 -26 101 -43 108 -25 10
27 28 14 25 -18 -2 -34 13 -82 29 -92 5 -3 9 -19 10 -37 0 -17 9 -41 20 -53
10 -11 22 -29 25 -38 7 -20 22 -23 32 -8 3 6 15 10 26 10 12 0 17 -5 14 -10
-4 -6 -2 -17 5 -25 9 -11 6 -17 -12 -29 -23 -15 -38 -16 -378 -31 -180 -7
-280 -27 -280 -54 0 -4 -15 -24 -34 -43 -19 -19 -36 -43 -38 -54 -2 -13 -12
-19 -33 -20 -56 -1 -60 -4 -79 -46 -25 -58 -10 -101 56 -159 28 -24 67 -69 88
-99 46 -67 169 -193 222 -226 37 -24 47 -25 195 -26 130 0 158 2 168 15 6 8
40 30 75 48 65 32 76 39 160 96 25 17 55 33 67 37 12 4 52 27 88 51 37 25 72
45 78 45 15 0 15 76 0 105 -5 11 -15 30 -21 42 -9 17 -8 24 4 34 22 18 46 1
56 -39 5 -18 15 -32 23 -32 18 0 28 17 15 25 -16 10 -12 45 5 45 14 0 20 -22
17 -63 -1 -10 9 -22 22 -28 21 -10 25 -20 31 -95 4 -46 4 -88 1 -93 -4 -5 -2
-12 4 -16 16 -10 39 -71 46 -123 6 -48 3 -61 -41 -217 -14 -49 -30 -116 -36
-148 -9 -53 -8 -60 8 -72 15 -11 23 -11 53 5 33 17 82 30 175 45 59 10 107 63
103 113 -2 30 -7 38 -25 40 -13 2 -23 10 -23 18 0 19 32 32 38 15 3 -8 16 -2
37 19 44 43 59 33 50 -35 -4 -33 -2 -56 4 -60 14 -8 53 13 46 26 -4 5 -2 9 3
9 5 0 16 15 23 33 7 17 21 39 31 47 12 11 18 36 21 85 5 62 2 74 -19 105 -26
39 -33 105 -15 155 6 17 19 54 29 83 17 46 18 59 8 94 -17 56 0 117 43 158
l33 32 -6 316 c-5 293 -7 317 -25 336 -19 21 -37 79 -39 128 -2 31 -20 62 -80
141 -35 47 -50 59 -93 72 -77 22 -175 92 -199 141 -11 22 -20 50 -20 62 0 15
-12 28 -38 41 -20 10 -48 30 -62 43 -14 14 -54 41 -90 60 -51 28 -81 37 -138
42 -41 3 -84 12 -95 19 -12 6 -26 12 -32 13 -31 2 -86 18 -125 37 -26 12 -77
24 -120 28 -41 4 -93 12 -115 18 -22 6 -92 10 -155 9 -63 -2 -241 -5 -395 -8z
m85 -925 c-7 -9 -15 -13 -19 -10 -3 3 1 10 9 15 21 14 24 12 10 -5z m995 -665
c3 -5 1 -10 -4 -10 -6 0 -11 5 -11 10 0 6 2 10 4 10 3 0 8 -4 11 -10z"/>
<path d="M1655 2630 c3 -5 13 -10 21 -10 8 0 14 5 14 10 0 6 -9 10 -21 10 -11
0 -17 -4 -14 -10z"/>
<path d="M1458 2603 c7 -3 16 -2 19 1 4 3 -2 6 -13 5 -11 0 -14 -3 -6 -6z"/>
<path d="M1110 2009 c0 -12 -8 -23 -20 -26 -11 -3 -20 -14 -20 -24 0 -11 -8
-22 -17 -26 -84 -28 -229 -90 -247 -105 -21 -17 -20 -17 36 -18 31 0 58 -5 60
-10 4 -14 75 -39 111 -40 57 0 110 -24 130 -57 24 -41 52 -43 118 -7 48 27 66
48 49 59 -18 11 -11 22 21 35 17 7 34 23 39 35 7 19 -1 89 -12 100 -20 20 -88
58 -128 71 -28 9 -53 20 -56 25 -3 5 -18 9 -35 9 -23 0 -29 -4 -29 -21z m-99
-163 c8 -17 8 -29 0 -44 -11 -20 -13 -20 -59 -7 -26 8 -48 15 -49 15 -2 0 -3
4 -3 10 0 11 68 49 88 50 7 0 17 -11 23 -24z"/>
<path d="M3532 1970 c0 -14 2 -19 5 -12 2 6 2 18 0 25 -3 6 -5 1 -5 -13z"/>
<path d="M451 1624 c0 -11 3 -14 6 -6 3 7 2 16 -1 19 -3 4 -6 -2 -5 -13z"/>
<path d="M471 1594 c0 -11 3 -14 6 -6 3 7 2 16 -1 19 -3 4 -6 -2 -5 -13z"/>
<path d="M1905 1410 c-3 -6 -1 -25 6 -43 10 -28 9 -42 -5 -85 -15 -46 -22 -53
-54 -62 -46 -13 -158 -13 -181 -1 -24 14 -129 2 -135 -15 -3 -7 1 -20 9 -27
10 -10 11 -17 3 -25 -8 -8 -4 -14 15 -23 27 -12 35 -33 17 -44 -6 -3 -24 4
-41 16 -24 17 -47 22 -103 24 -40 2 -82 7 -92 13 -23 12 -54 -2 -54 -24 0 -11
-9 -14 -32 -12 -28 2 -32 0 -30 -16 2 -10 -7 -29 -19 -42 -17 -19 -25 -21 -36
-12 -11 9 -15 7 -20 -10 -9 -35 -48 -28 -45 8 0 3 -21 5 -46 4 -59 -2 -58 -2
-74 -16 -8 -7 -23 -18 -33 -24 -14 -8 -21 -24 -23 -54 -5 -71 30 -132 81 -142
22 -4 29 0 43 30 11 24 28 39 56 50 29 11 38 20 35 33 -4 15 3 17 49 17 30 0
56 -4 58 -7 5 -8 98 -5 148 4 20 4 50 3 66 -3 23 -8 41 -7 72 4 46 16 75 12
84 -13 9 -24 -13 -43 -49 -43 -18 0 -38 -7 -46 -16 -13 -15 -54 -14 -126 3
-13 3 -23 0 -23 -6 0 -18 52 -38 120 -45 49 -4 68 -11 79 -26 7 -11 19 -20 25
-20 6 0 18 -4 26 -10 12 -7 12 -12 -4 -28 -11 -13 -14 -22 -7 -27 26 -15 5
-20 -88 -20 -55 0 -102 -3 -105 -6 -4 -3 -2 -18 3 -32 7 -19 20 -28 46 -33 20
-3 47 -19 63 -36 15 -16 40 -36 55 -44 23 -12 28 -21 25 -47 -3 -29 0 -32 22
-30 135 12 148 12 160 -1 9 -12 7 -17 -9 -25 -11 -6 -23 -20 -26 -31 -8 -26
-25 -26 -32 0 -15 55 -57 -3 -58 -79 l0 -43 -60 -19 c-71 -22 -76 -23 -52 -5
15 12 15 15 2 26 -8 7 -15 21 -15 31 0 11 -4 19 -8 19 -5 0 -18 9 -30 20 -23
22 -82 38 -82 23 0 -5 14 -19 30 -31 17 -13 30 -31 30 -42 0 -12 7 -20 16 -20
10 0 14 -5 10 -15 -9 -25 29 -35 163 -43 142 -9 297 8 346 38 17 9 57 34 89
54 33 20 68 36 79 36 11 0 34 13 52 29 39 34 132 71 178 71 19 0 42 8 54 19
11 10 35 27 54 36 18 10 42 29 54 44 11 14 28 32 37 40 11 9 15 23 12 37 -3
12 -1 25 5 28 6 4 11 12 11 17 0 6 -4 8 -9 5 -5 -3 -11 1 -15 9 -13 36 -40 5
-84 -97 -2 -5 3 -8 12 -8 35 0 -1 -47 -56 -73 -20 -10 -40 -22 -43 -27 -3 -6
-15 -10 -27 -10 -18 0 -19 2 -7 16 8 10 14 42 14 80 l0 65 -29 -3 c-28 -3 -29
-2 -31 55 -3 52 0 61 26 90 17 19 29 43 29 59 0 16 5 28 11 28 7 0 9 10 5 25
-4 17 -2 27 7 31 9 3 13 22 13 58 -1 37 -5 52 -13 49 -8 -3 -11 5 -10 22 2 23
-4 30 -30 39 -43 15 -51 26 -30 37 13 8 15 14 7 30 -12 21 -46 26 -53 7 -4
-10 -7 -10 -18 0 -7 6 -23 12 -36 12 -12 0 -27 9 -33 20 -6 11 -20 20 -30 20
-11 0 -20 4 -20 9 0 18 -63 75 -101 93 -22 9 -63 40 -93 68 -50 47 -87 62
-101 40z m128 -161 c12 -7 43 -29 68 -50 26 -22 64 -47 86 -56 53 -25 142
-110 122 -118 -9 -3 -28 -1 -43 5 -15 5 -56 10 -90 10 -50 0 -69 -5 -91 -21
-22 -18 -29 -20 -36 -8 -5 8 -9 17 -9 22 0 4 -11 5 -25 1 -14 -3 -38 -2 -53 4
-15 6 -39 13 -54 16 -26 6 -27 8 -24 64 5 75 12 89 55 117 41 27 63 30 94 14z
m-340 -586 c-7 -2 -19 -2 -25 0 -7 3 -2 5 12 5 14 0 19 -2 13 -5z"/>
<path d="M3263 1275 c-18 -8 -33 -19 -33 -25 0 -15 53 -12 78 6 46 32 15 45
-45 19z"/>
<path d="M3272 1115 c-38 -21 -11 -24 43 -4 49 17 49 17 15 17 -19 0 -46 -6
-58 -13z"/>
<path d="M3023 1074 c-21 -10 -33 -24 -33 -36 0 -19 1 -19 26 1 15 12 41 21
59 21 18 0 54 3 81 7 46 7 47 8 19 14 -54 12 -119 9 -152 -7z"/>
<path d="M2971 994 c0 -11 3 -14 6 -6 3 7 2 16 -1 19 -3 4 -6 -2 -5 -13z"/>
<path d="M2710 750 c0 -5 5 -10 10 -10 6 0 10 5 10 10 0 6 -4 10 -10 10 -5 0
-10 -4 -10 -10z"/>
<path d="M2810 620 c-8 -5 -11 -12 -8 -16 4 -3 14 1 23 10 18 17 9 21 -15 6z"/>
<path d="M2781 574 c0 -11 3 -14 6 -6 3 7 2 16 -1 19 -3 4 -6 -2 -5 -13z"/>
<path d="M2507 553 c-4 -3 -7 -11 -7 -17 0 -6 5 -5 12 2 6 6 9 14 7 17 -3 3
-9 2 -12 -2z"/>
<path d="M1502 406 c2 -15 8 -26 13 -26 15 0 12 43 -3 48 -10 3 -13 -4 -10
-22z"/>
<path d="M2648 403 c7 -3 16 -2 19 1 4 3 -2 6 -13 5 -11 0 -14 -3 -6 -6z"/>
<path d="M2589 370 c-31 -26 -15 -26 18 0 14 11 21 20 15 20 -5 0 -20 -9 -33
-20z"/>
<path d="M2440 333 c-28 -9 -65 -28 -77 -40 -23 -21 -14 -24 19 -7 42 22 83
35 138 44 l45 7 -55 1 c-30 0 -62 -2 -70 -5z"/>
<path d="M2275 243 c-28 -6 -65 -24 -94 -45 -37 -28 -11 -21 65 17 67 34 71
37 29 28z"/>
<path d="M1140 213 c8 -3 23 -14 34 -24 11 -11 22 -16 25 -13 9 9 -39 44 -58
43 -13 0 -13 -2 -1 -6z"/>
<path d="M2116 155 c-17 -13 -18 -15 -3 -15 9 0 17 4 17 9 0 5 8 12 18 14 12
3 13 5 2 6 -8 0 -24 -6 -34 -14z"/>
<path d="M1245 146 c49 -19 139 -37 235 -46 154 -13 430 -13 430 1 0 5 4 8 8
5 13 -8 156 14 167 26 7 7 -4 8 -35 3 -77 -13 -693 -17 -700 -5 -4 6 -31 13
-61 15 -30 3 -49 3 -44 1z"/>
</g>
</svg>
